<svg width="34" height="34" viewBox="0 0 34 34" fill="none" xmlns="http://www.w3.org/2000/svg">
<path d="M8.86957 7.39135C8.86957 6.63434 8.87435 6.47057 8.88854 6.3628C9.01953 5.36779 9.80251 4.58481 10.7975 4.45382C10.9053 4.43963 11.0691 4.43485 11.8261 4.43485H20.2522C21.5306 4.43485 22.3561 4.43657 22.9844 4.4879C23.5868 4.53712 23.8101 4.62066 23.9197 4.67653C24.3369 4.88911 24.6762 5.22833 24.8888 5.64555C24.9446 5.75519 25.0282 5.97852 25.0774 6.58091C25.1287 7.20917 25.1304 8.03464 25.1304 9.31308V14.6033L24.481 13.9538C23.615 13.0879 22.2111 13.0879 21.3451 13.9538C20.4792 14.8198 20.4792 16.2237 21.3451 17.0897L25.7799 21.5244C26.6458 22.3904 28.0498 22.3904 28.9158 21.5244L33.3505 17.0897C34.2165 16.2237 34.2165 14.8198 33.3505 13.9538C32.4846 13.0879 31.0806 13.0879 30.2147 13.9538L29.5652 14.6033V9.22757C29.5653 8.0587 29.5653 7.05033 29.4974 6.21977C29.4258 5.34314 29.2677 4.47123 28.8402 3.63222C28.2024 2.38054 27.1848 1.36289 25.9331 0.725127C25.0941 0.29763 24.2221 0.139494 23.3455 0.067872C22.5149 1.13852e-05 21.5066 4.48685e-05 20.3377 8.75582e-05L11.7021 4.23574e-05C11.1394 -0.00025647 10.6555 -0.000513447 10.2187 0.0569971C7.23362 0.449986 4.88468 2.79891 4.49169 5.78395C4.43418 6.22078 4.43444 6.70468 4.43474 7.26735L4.43478 7.39135C4.43478 8.61598 5.42754 9.60873 6.65217 9.60873C7.87681 9.60873 8.86957 8.61598 8.86957 7.39135Z" fill="#4F46E5"/>
<path d="M0.649459 16.9103C-0.216486 17.7763 -0.216486 19.1802 0.649459 20.0462C1.5154 20.9121 2.91938 20.9121 3.78532 20.0462L4.43478 19.3967V24.7724C4.43474 25.9412 4.43471 26.9497 4.50257 27.7802C4.57419 28.6569 4.73233 29.5288 5.15983 30.3678C5.79759 31.6195 6.81525 32.6371 8.06693 33.2749C8.90595 33.7024 9.77787 33.8605 10.6545 33.9321C11.4851 34 12.4935 34 13.6624 33.9999L22.2979 34C22.8606 34.0003 23.3445 34.0005 23.7813 33.943C26.7664 33.55 29.1153 31.2011 29.5083 28.216C29.5658 27.7792 29.5656 27.2953 29.5653 26.7326L29.5652 26.6086C29.5652 25.384 28.5725 24.3913 27.3478 24.3913C26.1232 24.3913 25.1304 25.384 25.1304 26.6086C25.1304 27.3657 25.1257 27.5294 25.1115 27.6372C24.9805 28.6322 24.1975 29.4152 23.2025 29.5462C23.0947 29.5604 22.9309 29.5651 22.1739 29.5651H13.7478C12.4694 29.5651 11.6439 29.5634 11.0156 29.5121C10.4133 29.4629 10.1899 29.3793 10.0803 29.3235C9.66306 29.1109 9.32384 28.7717 9.11125 28.3544C9.05538 28.2448 8.97184 28.0215 8.92262 27.4191C8.87129 26.7908 8.86957 25.9654 8.86957 24.6869V19.3967L9.51902 20.0462C10.385 20.9121 11.7889 20.9121 12.6549 20.0462C13.5208 19.1802 13.5208 17.7763 12.6549 16.9103L8.22011 12.4756C7.35416 11.6096 5.95019 11.6096 5.08424 12.4756L0.649459 16.9103Z" fill="#4F46E5"/>
</svg>
