<svg width="176" height="32" viewBox="0 0 176 32" fill="none" xmlns="http://www.w3.org/2000/svg">
<path fill-rule="evenodd" clip-rule="evenodd" d="M0 8C0 3.58172 3.58172 0 8 0H24C28.4183 0 32 3.58172 32 8V24C32 28.4183 28.4183 32 24 32H8C3.58172 32 0 28.4183 0 24V8ZM8 8H18.449V12.9231H8V8ZM12.2449 19.0769H18.449V24H8V14.1538H19.7551V8H24V24H19.7551V17.4359H12.2449V19.0769Z" fill="white"/>
<path d="M70.3487 11.9091L65.772 25H61.6811L57.1044 11.9091H60.9396L63.6584 21.2756H63.7947L66.505 11.9091H70.3487Z" fill="white"/>
<path fill-rule="evenodd" clip-rule="evenodd" d="M73.3551 24.8125C74.0085 25.1023 74.7528 25.2472 75.5881 25.2472C76.2358 25.2472 76.8068 25.1619 77.3011 24.9915C77.7955 24.8153 78.2188 24.5739 78.571 24.267C78.9233 23.9545 79.2045 23.5938 79.4148 23.1847H79.517V25H82.9602V16.1705C82.9602 15.392 82.8097 14.7244 82.5085 14.1676C82.2074 13.6051 81.7955 13.1449 81.2727 12.7869C80.7557 12.429 80.1619 12.1648 79.4915 11.9943C78.8267 11.8239 78.1307 11.7386 77.4034 11.7386C76.358 11.7386 75.4375 11.8977 74.642 12.2159C73.8523 12.5284 73.2074 12.9773 72.7074 13.5625C72.2074 14.142 71.8722 14.8295 71.7017 15.625L75.0597 15.8977C75.1847 15.4659 75.4403 15.108 75.8267 14.8239C76.2131 14.5341 76.7329 14.3892 77.3864 14.3892C78.0057 14.3892 78.483 14.5369 78.8182 14.8324C79.1591 15.1278 79.3295 15.5455 79.3295 16.0852V16.1364C79.3295 16.4148 79.2244 16.625 79.0142 16.767C78.804 16.9091 78.4659 17.017 78 17.0909C77.5341 17.1591 76.9204 17.233 76.1591 17.3125C75.5114 17.375 74.8921 17.483 74.3011 17.6364C73.7159 17.7898 73.1932 18.017 72.733 18.3182C72.2727 18.6193 71.9091 19.017 71.642 19.5114C71.375 20.0057 71.2415 20.6165 71.2415 21.3438C71.2415 22.2074 71.429 22.929 71.804 23.5085C72.1847 24.0824 72.7017 24.517 73.3551 24.8125ZM78.0426 22.4261C77.6335 22.6364 77.1619 22.7415 76.6278 22.7415C76.071 22.7415 75.6108 22.6136 75.2472 22.358C74.8892 22.0966 74.7102 21.7188 74.7102 21.2244C74.7102 20.8835 74.7983 20.5994 74.9744 20.3722C75.1506 20.1392 75.3977 19.9545 75.7159 19.8182C76.0341 19.6818 76.4062 19.5824 76.8324 19.5199C77.0312 19.4915 77.2528 19.4602 77.4972 19.4261C77.7415 19.3864 77.9858 19.3438 78.2301 19.2983C78.4744 19.2472 78.6932 19.1932 78.8864 19.1364C79.0852 19.0739 79.2415 19.0057 79.3551 18.9318V20.321C79.3551 20.7812 79.2386 21.1932 79.0057 21.5568C78.7727 21.9205 78.4517 22.2102 78.0426 22.4261Z" fill="white"/>
<path d="M89.723 15.9915C89.5185 16.3892 89.4134 16.8693 89.4077 17.4318V25H85.777V11.9091H89.2372V14.2188H89.3906C89.6804 13.4574 90.1662 12.8551 90.848 12.4119C91.5298 11.9631 92.3565 11.7386 93.3281 11.7386C94.2372 11.7386 95.0298 11.9375 95.706 12.3352C96.3821 12.733 96.9077 13.3011 97.2827 14.0398C97.6577 14.7727 97.8452 15.6477 97.8452 16.6648V25H94.2145V17.3125C94.2202 16.5114 94.0156 15.8864 93.6009 15.4375C93.1861 14.983 92.6151 14.7557 91.8878 14.7557C91.3991 14.7557 90.9673 14.8608 90.5923 15.071C90.223 15.2812 89.9332 15.5881 89.723 15.9915Z" fill="white"/>
<path fill-rule="evenodd" clip-rule="evenodd" d="M130.134 25.2557C128.787 25.2557 127.628 24.983 126.656 24.4375C125.69 23.8864 124.946 23.108 124.423 22.1023C123.901 21.0909 123.639 19.8949 123.639 18.5142C123.639 17.1676 123.901 15.9858 124.423 14.9688C124.946 13.9517 125.682 13.1591 126.631 12.5909C127.585 12.0227 128.705 11.7386 129.989 11.7386C130.852 11.7386 131.656 11.8778 132.401 12.1562C133.151 12.429 133.804 12.8409 134.361 13.392C134.923 13.9432 135.361 14.6364 135.673 15.4716C135.986 16.3011 136.142 17.2727 136.142 18.3864V19.3835H127.227V19.392C127.227 20.0398 127.347 20.5994 127.585 21.071C127.83 21.5426 128.173 21.9062 128.616 22.1619C129.06 22.4176 129.585 22.5455 130.193 22.5455C130.597 22.5455 130.966 22.4886 131.301 22.375C131.636 22.2614 131.923 22.0909 132.162 21.8636C132.401 21.6364 132.582 21.358 132.707 21.0284L136.065 21.25C135.895 22.0568 135.545 22.7614 135.017 23.3636C134.494 23.9602 133.818 24.4261 132.989 24.7614C132.165 25.0909 131.213 25.2557 130.134 25.2557ZM127.594 15.8466C127.374 16.2345 127.253 16.6634 127.231 17.1335H132.724C132.724 16.6108 132.611 16.1477 132.384 15.7443C132.156 15.3409 131.841 15.0256 131.438 14.7983C131.04 14.5653 130.577 14.4489 130.048 14.4489C129.497 14.4489 129.009 14.5767 128.582 14.8324C128.162 15.0824 127.832 15.4205 127.594 15.8466Z" fill="white"/>
<path d="M143.582 12.4119C142.901 12.8551 142.415 13.4574 142.125 14.2188H141.972V11.9091H138.511V25H142.142V17.4318C142.148 16.8693 142.253 16.3892 142.457 15.9915C142.668 15.5881 142.957 15.2812 143.327 15.071C143.702 14.8608 144.134 14.7557 144.622 14.7557C145.349 14.7557 145.92 14.983 146.335 15.4375C146.75 15.8864 146.955 16.5114 146.949 17.3125V25H150.58V16.6648C150.58 15.6477 150.392 14.7727 150.017 14.0398C149.642 13.3011 149.116 12.733 148.44 12.3352C147.764 11.9375 146.972 11.7386 146.062 11.7386C145.091 11.7386 144.264 11.9631 143.582 12.4119Z" fill="white"/>
<path d="M157.43 16.179C157.191 16.5881 157.072 17.0597 157.072 17.5938V25H153.441V11.9091H156.961V14.1932H157.097C157.336 13.3807 157.737 12.767 158.299 12.3523C158.862 11.9318 159.509 11.7216 160.242 11.7216C160.424 11.7216 160.62 11.733 160.83 11.7557C161.04 11.7784 161.225 11.8097 161.384 11.8494V15.071C161.214 15.0199 160.978 14.9744 160.677 14.9347C160.376 14.8949 160.1 14.875 159.85 14.875C159.316 14.875 158.839 14.9915 158.418 15.2244C158.004 15.4517 157.674 15.7699 157.43 16.179Z" fill="white"/>
<path d="M164.606 29.7983C165.009 29.8722 165.441 29.9091 165.901 29.9091C166.799 29.9091 167.566 29.7642 168.202 29.4744C168.839 29.1903 169.364 28.7841 169.779 28.2557C170.2 27.733 170.532 27.1193 170.776 26.4148L175.864 11.9091H172.021L169.285 21.5227H169.148L166.438 11.9091H162.62L167.316 25.375L167.103 25.929C166.944 26.3381 166.736 26.6278 166.481 26.7983C166.231 26.9688 165.933 27.0483 165.586 27.0369C165.245 27.0256 164.861 26.9545 164.435 26.8239L163.617 29.5341C163.879 29.642 164.208 29.7301 164.606 29.7983Z" fill="white"/>
<path d="M43.517 7.54545V25H55.3125V21.9574H47.2074V17.7898H54.6733V14.7472H47.2074V10.5881H55.2784V7.54545H43.517Z" fill="white"/>
<path d="M106.33 7.54545V25H110.02V17.7898H117.511V25H121.193V7.54545H117.511V14.7472H110.02V7.54545H106.33Z" fill="white"/>
</svg>
