<svg width="27" height="27" viewBox="0 0 27 27" fill="none" xmlns="http://www.w3.org/2000/svg">
<path fill-rule="evenodd" clip-rule="evenodd" d="M0 2.66667C0 1.19391 1.19391 0 2.66667 0H9.33333C10.8061 0 12 1.19391 12 2.66667V9.33333C12 10.8061 10.8061 12 9.33333 12H2.66667C1.19391 12 0 10.8061 0 9.33333V2.66667ZM9.33333 2.66667H2.66667V9.33333H9.33333V2.66667Z" fill="url(#paint0_linear_3823_194)"/>
<path fill-rule="evenodd" clip-rule="evenodd" d="M14.6667 2.66667C14.6667 1.19391 15.8606 0 17.3333 0H24C25.4728 0 26.6667 1.19391 26.6667 2.66667V9.33333C26.6667 10.8061 25.4728 12 24 12H17.3333C15.8606 12 14.6667 10.8061 14.6667 9.33333V2.66667ZM24 2.66667H17.3333V9.33333H24V2.66667Z" fill="url(#paint1_linear_3823_194)"/>
<path fill-rule="evenodd" clip-rule="evenodd" d="M14.6667 17.3333C14.6667 15.8606 15.8606 14.6667 17.3333 14.6667H24C25.4728 14.6667 26.6667 15.8606 26.6667 17.3333V24C26.6667 25.4728 25.4728 26.6667 24 26.6667H17.3333C15.8606 26.6667 14.6667 25.4728 14.6667 24V17.3333ZM24 17.3333H17.3333V24H24V17.3333Z" fill="url(#paint2_linear_3823_194)"/>
<path fill-rule="evenodd" clip-rule="evenodd" d="M0 17.3333C0 15.8606 1.19391 14.6667 2.66667 14.6667H9.33333C10.8061 14.6667 12 15.8606 12 17.3333V24C12 25.4728 10.8061 26.6667 9.33333 26.6667H2.66667C1.19391 26.6667 0 25.4728 0 24V17.3333ZM9.33333 17.3333H2.66667V24H9.33333V17.3333Z" fill="url(#paint3_linear_3823_194)"/>
<defs>
<linearGradient id="paint0_linear_3823_194" x1="0" y1="0" x2="26.6667" y2="26.6667" gradientUnits="userSpaceOnUse">
<stop stop-color="#2DD4BF"/>
<stop offset="1" stop-color="#10B981"/>
</linearGradient>
<linearGradient id="paint1_linear_3823_194" x1="0" y1="0" x2="26.6667" y2="26.6667" gradientUnits="userSpaceOnUse">
<stop stop-color="#2DD4BF"/>
<stop offset="1" stop-color="#10B981"/>
</linearGradient>
<linearGradient id="paint2_linear_3823_194" x1="0" y1="0" x2="26.6667" y2="26.6667" gradientUnits="userSpaceOnUse">
<stop stop-color="#2DD4BF"/>
<stop offset="1" stop-color="#10B981"/>
</linearGradient>
<linearGradient id="paint3_linear_3823_194" x1="0" y1="0" x2="26.6667" y2="26.6667" gradientUnits="userSpaceOnUse">
<stop stop-color="#2DD4BF"/>
<stop offset="1" stop-color="#10B981"/>
</linearGradient>
</defs>
</svg>
