<svg width="200" height="200" viewBox="0 0 200 200" fill="none" xmlns="http://www.w3.org/2000/svg">
    <path fill-rule="evenodd" clip-rule="evenodd"
        d="M50 0C22.3858 0 0 22.3858 0 50V150C0 177.614 22.3858 200 50 200H150C177.614 200 200 177.614 200 150V50C200 22.3858 177.614 0 150 0H50ZM115.306 50H50V80.7692H115.306V50ZM115.306 119.231H76.5306V108.974H123.469V150H150V50H123.469V88.4615H50V150H115.306V119.231Z"
        fill="#1E1E1E" />
    <path d="M50 50H115.306V80.7692H50V50Z" fill="white" />
    <path d="M76.5306 119.231H115.306V150H50V88.4615H123.469V50H150V150H123.469V108.974H76.5306V119.231Z"
        fill="white" />
</svg>